<svg width="33" height="32" viewBox="0 0 33 32" fill="none" xmlns="http://www.w3.org/2000/svg">
<path d="M15.5396 4.23503C16.1442 3.92165 16.8558 3.92166 17.4604 4.23503L27.3129 9.34209C28.8957 10.1625 28.8957 12.5041 27.3129 13.3246L17.4604 18.4316C16.8558 18.745 16.1442 18.745 15.5396 18.4316L5.6871 13.3246C4.10432 12.5041 4.10431 10.1625 5.6871 9.34209L15.5396 4.23503Z" fill="#437EF7"/>
<path d="M6.43317 16.1425C5.77551 15.8113 4.97383 16.0759 4.64255 16.7335C4.31128 17.3912 4.57587 18.1929 5.23353 18.5241L15.602 23.7469C16.167 24.0315 16.833 24.0315 17.398 23.7469L27.7665 18.5241C28.4242 18.1929 28.6887 17.3912 28.3575 16.7335C28.0262 16.0759 27.2245 15.8113 26.5669 16.1425L16.5 21.2134L6.43317 16.1425Z" fill="#437EF7"/>
<path d="M6.43317 21.5155C5.77551 21.1842 4.97383 21.4488 4.64255 22.1065C4.31128 22.7641 4.57587 23.5658 5.23353 23.8971L15.602 29.1199C16.167 29.4045 16.833 29.4045 17.398 29.1199L27.7665 23.8971C28.4242 23.5658 28.6887 22.7641 28.3575 22.1065C28.0262 21.4488 27.2245 21.1842 26.5669 21.5155L16.5 26.5863L6.43317 21.5155Z" fill="#437EF7"/>
</svg>
