<svg width="33" height="32" viewBox="0 0 33 32" fill="none" xmlns="http://www.w3.org/2000/svg">
<path fill-rule="evenodd" clip-rule="evenodd" d="M17.8333 2.66634C17.8333 1.92996 17.2364 1.33301 16.5 1.33301C15.7636 1.33301 15.1667 1.92996 15.1667 2.66634V3.99967C11.4848 3.99967 8.5 6.98444 8.5 10.6663C8.5 14.3482 11.4848 17.333 15.1667 17.333V25.333C12.9575 25.333 11.1667 23.5421 11.1667 21.333C11.1667 20.5966 10.5697 19.9997 9.83333 19.9997C9.09695 19.9997 8.5 20.5966 8.5 21.333C8.5 25.0149 11.4848 27.9997 15.1667 27.9997L15.1667 29.333C15.1667 30.0694 15.7636 30.6663 16.5 30.6663C17.2364 30.6663 17.8333 30.0694 17.8333 29.333L17.8333 27.9997C21.5152 27.9997 24.5 25.0149 24.5 21.333C24.5 17.6511 21.5152 14.6663 17.8333 14.6663V6.66634C20.0425 6.66634 21.8333 8.4572 21.8333 10.6663C21.8333 11.4027 22.4303 11.9997 23.1667 11.9997C23.903 11.9997 24.5 11.4027 24.5 10.6663C24.5 6.98444 21.5152 3.99967 17.8333 3.99967V2.66634ZM21.8333 21.333C21.8333 23.5421 20.0425 25.333 17.8333 25.333V17.333C20.0425 17.333 21.8333 19.1239 21.8333 21.333ZM11.1667 10.6663C11.1667 8.4572 12.9575 6.66634 15.1667 6.66634V14.6663C12.9575 14.6663 11.1667 12.8755 11.1667 10.6663Z" fill="#437EF7"/>
</svg>
