<svg width="24" height="28" viewBox="0 0 24 28" fill="none" xmlns="http://www.w3.org/2000/svg">
<path d="M17.2977 11.5786C17.5357 11.8165 17.7674 12.0482 17.9476 12.2605C18.1455 12.4937 18.3583 12.7895 18.4838 13.1758C18.6578 13.7114 18.6578 14.2883 18.4838 14.8239C18.3583 15.2102 18.1455 15.506 17.9476 15.7392C17.7674 15.9514 17.5357 16.1831 17.2977 16.421L14.7761 18.9426C14.2554 19.4633 13.4112 19.4633 12.8905 18.9426C12.3698 18.4219 12.3698 17.5777 12.8905 17.057L14.6143 15.3332H1.83333C1.09695 15.3332 0.5 14.7362 0.5 13.9998C0.5 13.2635 1.09695 12.6665 1.83333 12.6665H14.6143L12.8905 10.9426C12.3698 10.4219 12.3698 9.57772 12.8905 9.05703C13.4112 8.53633 14.2554 8.53633 14.7761 9.05703L17.2977 11.5786Z" fill="#437EF7"/>
<path d="M7.16667 4.93317C7.16667 3.4397 7.16667 2.69296 7.45732 2.12253C7.71298 1.62076 8.12093 1.21282 8.62269 0.957153C9.19312 0.666504 9.93986 0.666504 11.4333 0.666504H18.9C20.3935 0.666504 21.1402 0.666504 21.7106 0.957153C22.2124 1.21282 22.6204 1.62076 22.876 2.12253C23.1667 2.69296 23.1667 3.4397 23.1667 4.93317V23.0665C23.1667 24.56 23.1667 25.3067 22.876 25.8771C22.6204 26.3789 22.2124 26.7869 21.7106 27.0425C21.1402 27.3332 20.3935 27.3332 18.9 27.3332H11.4333C9.93986 27.3332 9.19312 27.3332 8.62269 27.0425C8.12093 26.7869 7.71298 26.3789 7.45732 25.8771C7.16667 25.3067 7.16667 24.56 7.16667 23.0665V17.9998H9.83329C9.83329 19.0235 10.2238 20.0472 11.0049 20.8283C12.567 22.3904 15.0996 22.3904 16.6617 20.8283L19.2149 18.2751C19.4289 18.0613 19.7282 17.7623 19.9805 17.465C20.2863 17.1047 20.7426 16.5016 21.02 15.6479C21.368 14.5768 21.368 13.4229 21.02 12.3518C20.7426 11.4981 20.2863 10.8949 19.9805 10.5347C19.7281 10.2374 19.4289 9.93838 19.2149 9.72456L16.6617 7.17141C15.0996 5.60931 12.567 5.60931 11.0049 7.17141C10.2238 7.95246 9.83328 8.97615 9.83328 9.99984H7.16667V4.93317Z" fill="#437EF7"/>
</svg>
