<svg width="33" height="32" viewBox="0 0 33 32" fill="none" xmlns="http://www.w3.org/2000/svg">
<path d="M9.83333 9.3335C9.83333 6.38798 12.2211 4.00016 15.1667 4.00016C18.1122 4.00016 20.5 6.38798 20.5 9.3335C20.5 10.0699 21.097 10.6668 21.8333 10.6668C22.5697 10.6668 23.1667 10.0699 23.1667 9.3335C23.1667 4.91522 19.5849 1.3335 15.1667 1.3335C10.7484 1.3335 7.16667 4.91522 7.16667 9.3335C7.16667 10.4688 7.40396 11.5522 7.83292 12.534C8.12775 13.2088 8.91377 13.5168 9.58855 13.222C10.2633 12.9271 10.5714 12.1411 10.2765 11.4663C9.9919 10.8149 9.83333 10.0945 9.83333 9.3335Z" fill="#437EF7"/>
<path d="M27.07 19.3578L24.5476 30.6668L12.5032 30.6668L11.6758 28.1938C11.1038 26.4843 9.87372 25.0712 8.25604 24.2654L5.98919 23.1362C4.7904 22.539 4.21479 21.1544 4.63862 19.8876C5.15691 18.3385 6.93215 17.6059 8.39808 18.3362L12.5032 20.3811L12.5 9.3335C12.5 7.91334 13.7412 6.66683 15.1667 6.66683C16.5921 6.66683 17.8333 7.8181 17.8333 9.23826V13.3335L23.8109 14.5445C26.0813 14.9215 27.5694 17.1192 27.07 19.3578Z" fill="#437EF7"/>
</svg>
